<?xml version="1.0" standalone="no"?>
<!DOCTYPE svg PUBLIC "-//W3C//DTD SVG 20010904//EN"
 "http://www.w3.org/TR/2001/REC-SVG-20010904/DTD/svg10.dtd">
<svg version="1.0" xmlns="http://www.w3.org/2000/svg"
 width="364.000000pt" height="394.000000pt" viewBox="0 0 364.000000 394.000000"
 preserveAspectRatio="xMidYMid meet">

<g transform="translate(0.000000,394.000000) scale(0.100000,-0.100000)"
fill="#000000" stroke="none">
<path d="M1700 3433 c-657 -31 -1237 -471 -1444 -1097 -49 -149 -67 -260 -73
-446 -7 -242 22 -414 107 -636 137 -357 449 -692 795 -853 229 -107 437 -153
689 -153 300 1 580 79 826 232 413 255 677 653 751 1130 16 105 16 348 0 455
-70 453 -319 848 -697 1103 -269 183 -623 281 -954 265z m323 -113 c315 -54
600 -203 824 -431 183 -187 303 -396 374 -651 49 -173 65 -434 39 -608 -101
-667 -604 -1174 -1265 -1276 -318 -49 -682 18 -960 177 -681 388 -950 1209
-631 1927 80 180 166 304 316 452 225 223 496 361 816 415 124 20 352 18 487
-5z"/>
<path d="M1699 2630 c-142 -22 -279 -114 -356 -240 -48 -80 -80 -239 -55 -276
13 -19 39 -23 59 -9 15 10 22 31 27 76 21 201 195 359 395 359 247 -1 433
-214 399 -460 -15 -117 -75 -195 -218 -288 -133 -86 -210 -194 -218 -303 -4
-51 -2 -58 18 -69 33 -17 70 10 70 53 1 81 72 173 199 255 105 68 167 131 202
207 165 350 -138 752 -522 695z"/>
<path d="M1743 1228 c-40 -10 -63 -42 -63 -86 0 -46 16 -71 53 -87 67 -28 132
14 132 85 0 67 -53 106 -122 88z"/>
</g>
</svg>
