<svg width="24" height="24" viewBox="0 0 98 96" xmlns="http://www.w3.org/2000/svg">
  <path
    fill="#70798F"
    d="M48.854 0C21.839 0 0 22.386 0 50.032c0 22.147 14.085 40.897 33.592 47.56 2.454.49 3.354-1.088 3.354-2.417 
    0-1.194-.043-4.363-.068-8.566-13.653 3.047-16.543-6.962-16.543-6.962-2.234-5.864-5.455-7.424-5.455-7.424-4.457-3.146.34-3.083.34-3.083 
    4.934.36 7.523 5.21 7.523 5.21 4.382 7.727 11.494 5.495 14.302 4.202.444-3.253 1.713-5.497 3.115-6.756-10.895-1.29-22.355-5.63-22.355-25.06 
    0-5.533 1.957-10.056 5.16-13.61-.516-1.29-2.238-6.497.49-13.54 0 0 4.205-1.37 13.77 5.2a46.63 46.63 0 0 1 12.526-1.744c4.25.02 8.528.6 
    12.525 1.745 9.565-6.57 13.77-5.2 13.77-5.2 2.728 7.043 1.006 12.25.49 13.54 3.22 3.555 5.16 8.077 5.16 13.61 
    0 19.48-11.48 23.75-22.403 25.01 1.762 1.57 3.33 4.64 3.33 9.36 0 6.756-.06 12.205-.06 13.857 
    0 1.34.9 2.92 3.38 2.416C83.94 90.9 98 72.17 98 50.03 98 22.386 76.16 0 48.854 0Z"
  />
</svg>